<svg id="Layer_1" data-name="Layer 1" xmlns="http://www.w3.org/2000/svg" viewBox="0 0 168.25 73.38"><defs><style>.cls-1{fill:#21b258;}.cls-2{fill:#fff;}</style></defs><title>SPPri</title><path class="cls-1" d="M2.37,72.72A2.37,2.37,0,0,1,0,70.35V49.17a1.79,1.79,0,0,1,.84-1.52l7.31-6c1.73-1.49,2.68-2.87,2.68-4.85A6.38,6.38,0,0,0,8.15,31.9l-7.31-6A1.79,1.79,0,0,1,0,24.34V3.15A2.37,2.37,0,0,1,2.37.78h67.2a2.37,2.37,0,0,1,2.37,2.37V24.29a5,5,0,0,0,2.11,3.81l7.16,6.09c.91.8,1.65,1.51,1.65,2.56s-.74,1.75-1.65,2.56L74.06,45.4a4.89,4.89,0,0,0-2.11,3.81V70.35a2.37,2.37,0,0,1-2.37,2.37Z"/><path class="cls-2" d="M28,38.67a7.62,7.62,0,0,0,4.39,1.82c1.5,0,2.14-.49,2.14-1.33S33.62,38,32,37.34l-2.34-1a5.55,5.55,0,0,1-3.78-5.23c0-3.21,2.89-5.83,7-5.83a9,9,0,0,1,6.24,2.51l-2.48,3.12a6.19,6.19,0,0,0-3.75-1.36c-1.21,0-2,.43-2,1.27s1.07,1.21,2.77,1.88l2.28.9a5.16,5.16,0,0,1,3.67,5.14c0,3.18-2.66,6-7.33,6a10.87,10.87,0,0,1-7.1-2.69Z"/><path class="cls-2" d="M41.92,25.64h7.28c4,0,7.51,1.5,7.51,6.24s-3.58,6.58-7.51,6.58H46.88v5.95h-5Zm7,8.89c2,0,2.89-1,2.89-2.66s-1-2.31-2.89-2.31H46.88v5Z"/><path class="cls-1" d="M99.12,11.29c-.14-.25-.33-.25-.58-.11a6,6,0,0,1-3.22,1c-1.91,0-3-1-3-2.69V5.6c0-1.72,1.08-2.69,3.05-2.69a5.89,5.89,0,0,1,2.91.8.4.4,0,0,0,.58-.11l1.08-1.66a.39.39,0,0,0-.11-.58A8.43,8.43,0,0,0,95.26,0c-3.83,0-6.19,2.19-6.19,5.58V9.46c0,3.38,2.33,5.6,6.21,5.6a8.16,8.16,0,0,0,4.91-1.55.36.36,0,0,0,.08-.55Z"/><path class="cls-1" d="M107.63,0a9.56,9.56,0,0,0-5.44,1.47c-.14.11-.14.25,0,.47l1.11,1.69a.36.36,0,0,0,.56.11,7.14,7.14,0,0,1,3.55-.89c2.05,0,2.77.83,2.77,2.8v.53A22,22,0,0,0,107.41,6c-3.55,0-6.08,1.41-6.08,4.44,0,3.47,3,4.63,6.19,4.63a20,20,0,0,0,5.58-.83.49.49,0,0,0,.31-.47V5.66C113.4,1.75,111.07,0,107.63,0Zm2.55,11.9a12.47,12.47,0,0,1-2.66.33c-1.69,0-2.94-.55-2.94-1.86,0-1.14.83-1.83,2.91-1.83a20.28,20.28,0,0,1,2.69.22Z"/><path class="cls-1" d="M126.95.36h-2.39c-.28,0-.42.14-.42.39v10.1a5.19,5.19,0,0,1-2.5.56c-1.66,0-3.16-.75-3.16-2.89V.75a.35.35,0,0,0-.39-.39h-2.41a.37.37,0,0,0-.42.39V8.66c0,3.83,3.05,5.66,5.94,5.66a10.23,10.23,0,0,0,3-.5c.11,2.77-1.11,3.61-3,3.61a6.55,6.55,0,0,1-3.77-1.28.34.34,0,0,0-.53.14L115.65,18a.36.36,0,0,0,.08.56,7.92,7.92,0,0,0,5.44,1.75c4.24,0,6.19-2.19,6.19-6.46V.75C127.36.5,127.22.36,126.95.36Z"/><path class="cls-1" d="M149.63,6.13c-1.83-.36-3.08-.64-3.08-1.78,0-.92.89-1.53,2.52-1.53a7.56,7.56,0,0,1,3.52.92.4.4,0,0,0,.55-.14l1.05-1.78a.36.36,0,0,0-.14-.55A10,10,0,0,0,149.24,0c-3,0-5.88,1.28-5.88,4.36,0,3.36,3.52,4.22,5.6,4.61,1.25.22,2.58.53,2.58,1.64s-1.14,1.61-2.58,1.61a7.18,7.18,0,0,1-4.19-1.41c-.25-.17-.42-.14-.56.11l-1.05,1.8c-.14.22-.14.42.11.56a9.49,9.49,0,0,0,5.63,1.8c3.33,0,5.88-1.5,5.88-4.61S151.91,6.55,149.63,6.13Z"/><path class="cls-1" d="M162.26,0c-3.05,0-6.1,1.61-6.1,5.69V9.65c0,3.69,2.94,5.41,6.08,5.41a8.72,8.72,0,0,0,5.63-1.91.37.37,0,0,0,.08-.58L166.81,11a.37.37,0,0,0-.55-.08,6.58,6.58,0,0,1-3.91,1.28c-1.78,0-2.94-.86-2.94-2.55V8.91h8.43c.28,0,.42-.14.42-.39V5.72C168.25,1.64,165.28,0,162.26,0Zm2.86,6.38H159.4V5.69a2.55,2.55,0,0,1,2.86-2.83,2.6,2.6,0,0,1,2.86,2.83Z"/><path class="cls-1" d="M141.44.36H139a.35.35,0,0,0-.39.39v8c0,2.57-1.14,3.39-3.06,3.41s-3.06-.84-3.06-3.41v-8a.35.35,0,0,0-.39-.39h-2.41c-.28,0-.42.14-.42.39V8.82c0,4.4,2.54,6.21,6.27,6.24h0c3.72,0,6.27-1.84,6.27-6.24V.75C141.86.5,141.72.36,141.44.36Z"/><path class="cls-1" d="M94.48,58.07c3.34,2.68,7.54,4.57,11,4.57,3.77,0,5.37-1.23,5.37-3.34s-2.39-3-6.38-4.57l-5.88-2.47c-5.08-2-9.5-6.31-9.5-13.13,0-8.05,7.25-14.65,17.55-14.65a22.67,22.67,0,0,1,15.67,6.31l-6.24,7.83c-3.19-2.25-5.95-3.41-9.43-3.41-3,0-4.93,1.09-4.93,3.19s2.68,3,7,4.71l5.73,2.25c5.88,2.32,9.21,6.38,9.21,12.91,0,8-6.67,15.09-18.42,15.09a27.31,27.31,0,0,1-17.84-6.75Z"/><path class="cls-1" d="M129.32,25.36H147.6c10.16,0,18.86,3.77,18.86,15.67,0,11.53-9,16.54-18.86,16.54h-5.8V72.51H129.32ZM147,47.7c4.93,0,7.25-2.47,7.25-6.67s-2.61-5.8-7.25-5.8h-5.22V47.7Z"/></svg>